<?xml version="1.0" standalone="no"?>
<!DOCTYPE svg PUBLIC "-//W3C//DTD SVG 20010904//EN"
 "http://www.w3.org/TR/2001/REC-SVG-20010904/DTD/svg10.dtd">
<svg version="1.0" xmlns="http://www.w3.org/2000/svg"
 width="1080.000000pt" height="1080.000000pt" viewBox="0 0 1080.000000 1080.000000"
 preserveAspectRatio="xMidYMid meet">

<g transform="translate(0.000000,1080.000000) scale(0.100000,-0.100000)"
fill="#000000" stroke="none">
<path d="M3535 8601 c-79 -14 -152 -71 -186 -146 -18 -38 -19 -88 -19 -863 0
-676 2 -829 14 -856 19 -46 72 -104 120 -129 l41 -22 778 -3 c521 -2 791 1
817 8 60 16 121 68 153 129 l27 55 0 820 c0 929 5 862 -83 943 -82 75 -55 73
-886 72 -405 -1 -754 -5 -776 -8z"/>
<path d="M5690 6305 c-61 -19 -113 -65 -144 -127 l-26 -52 0 -818 c0 -887 -2
-849 54 -923 13 -17 48 -44 77 -60 l54 -30 790 0 790 0 53 29 c28 16 64 44 78
63 56 74 54 34 54 921 l0 818 -26 52 c-30 61 -87 109 -151 128 -68 21 -1536
19 -1603 -1z"/>
<path d="M7085 4026 c-93 -40 -122 -160 -58 -237 36 -43 74 -59 138 -59 103 0
164 50 173 140 9 99 -62 170 -169 170 -30 -1 -68 -7 -84 -14z"/>
<path d="M2400 3290 l0 -650 150 0 150 0 0 650 0 650 -150 0 -150 0 0 -650z"/>
<path d="M3235 3617 c-125 -33 -245 -117 -302 -215 -115 -196 -84 -478 68
-631 217 -216 628 -178 791 73 56 86 78 168 78 285 0 232 -113 400 -316 472
-74 26 -246 35 -319 16z m188 -248 c93 -26 150 -116 150 -239 0 -92 -23 -150
-76 -197 -120 -106 -293 -40 -328 125 -41 200 87 358 254 311z"/>
<path d="M4355 3617 c-125 -33 -245 -117 -302 -215 -115 -196 -84 -478 68
-631 217 -216 628 -178 791 73 56 86 78 168 78 285 0 232 -113 400 -316 472
-74 26 -246 35 -319 16z m188 -248 c93 -26 150 -116 150 -239 0 -92 -23 -150
-76 -197 -120 -106 -293 -40 -328 125 -41 200 87 358 254 311z"/>
<path d="M5664 3620 c-57 -12 -133 -52 -169 -89 -16 -17 -33 -31 -37 -31 -5 0
-8 27 -8 60 l0 60 -145 0 -145 0 0 -490 0 -490 145 0 145 0 0 270 c0 300 7
354 51 405 38 43 85 58 164 53 74 -5 121 -34 151 -95 17 -34 19 -68 22 -335
l3 -298 145 0 144 0 0 298 c0 293 0 300 23 343 32 60 84 89 160 89 68 0 112
-17 148 -56 45 -50 49 -78 49 -385 l0 -289 146 0 145 0 -3 353 -3 352 -31 65
c-42 89 -84 134 -157 170 -168 82 -339 58 -465 -65 l-63 -62 -62 62 c-45 45
-78 68 -120 83 -66 25 -173 35 -233 22z"/>
<path d="M7870 3623 c-168 -28 -305 -141 -361 -298 -30 -83 -37 -247 -15 -335
55 -217 208 -341 437 -357 157 -11 289 36 388 136 43 43 90 119 106 169 l6 22
-156 0 -156 0 -26 -30 c-36 -43 -74 -60 -133 -60 -94 0 -169 62 -185 153 l-7
37 341 0 341 0 0 88 c0 155 -42 263 -137 353 -60 56 -152 104 -232 119 -52 10
-161 11 -211 3z m190 -248 c46 -24 81 -71 87 -114 l6 -41 -192 0 -191 0 6 28
c9 38 49 98 79 118 53 35 148 39 205 9z"/>
<path d="M7020 3130 l0 -490 145 0 145 0 0 490 0 490 -145 0 -145 0 0 -490z"/>
</g>
</svg>
